<svg xmlns="http://www.w3.org/2000/svg" xmlns:xlink="http://www.w3.org/1999/xlink" width="94" height="94" viewBox="0 0 94 94">
  <defs>
    <circle id="soldier-logo-b" cx="47" cy="47" r="45"/>
    <filter id="soldier-logo-a" width="110%" height="110%" x="-5%" y="-5%" filterUnits="objectBoundingBox">
      <feGaussianBlur in="SourceAlpha" result="shadowBlurInner1" stdDeviation="1.5"/>
      <feOffset dx="2" dy="2" in="shadowBlurInner1" result="shadowOffsetInner1"/>
      <feComposite in="shadowOffsetInner1" in2="SourceAlpha" k2="-1" k3="1" operator="arithmetic" result="shadowInnerInner1"/>
      <feColorMatrix in="shadowInnerInner1" values="0 0 0 0 0   0 0 0 0 0   0 0 0 0 0  0 0 0 0.5 0"/>
    </filter>
  </defs>
  <g fill="none" fill-rule="evenodd">
    <use fill="#000" filter="url(#soldier-logo-a)" xlink:href="#soldier-logo-b"/>
    <use stroke="#4DB6AC" stroke-width="4" xlink:href="#soldier-logo-b"/>
    <g fill-rule="nonzero" transform="translate(18 14)">
      <path fill="#4DB6AC" d="M3.018 26.261C3.009 26.19 3.015 26.12 3.013 26.049 1.866 26.276 1 27.287 1 28.5L1 37.5C1 38.881 2.12 40 3.5 40L4.825 40 3.018 26.261zM54.988 26.049C54.986 26.12 54.992 26.19 54.983 26.261L53.176 40 54.5 40C55.881 40 57 38.881 57 37.5L57 28.5C57 27.287 56.135 26.276 54.988 26.049zM29 1C15.746 1 5 11.745 5 25L5 25 53 25 53 25C53 11.745 42.255 1 29 1z"/>
      <path fill="#263238" d="M53 25.5C52.724 25.5 52.5 25.276 52.5 25 52.5 12.042 41.958 1.5 29 1.5 16.042 1.5 5.5 12.042 5.5 25 5.5 25.276 5.276 25.5 5 25.5 4.724 25.5 4.5 25.276 4.5 25 4.5 11.491 15.491.5 29 .5 42.509.5 53.5 11.491 53.5 25 53.5 25.276 53.277 25.5 53 25.5zM46.115 46.5L36.23 46.5C34.35 46.5 32.62 45.556 31.604 43.975L30.683 42.542C30.313 41.967 29.684 41.624 29 41.624 28.316 41.624 27.688 41.967 27.318 42.542L26.397 43.975C25.381 45.556 23.651 46.5 21.771 46.5L11.886 46.5C9.136 46.5 6.792 44.444 6.433 41.718L4.505 27.065C4.486 26.922 4.53 26.778 4.625 26.67 4.72 26.562 4.856 26.5 5 26.5L53 26.5C53.144 26.5 53.281 26.562 53.376 26.67 53.471 26.778 53.515 26.922 53.496 27.065L51.568 41.717C51.209 44.444 48.865 46.5 46.115 46.5zM29 40.624C30.026 40.624 30.969 41.139 31.524 42.001L32.445 43.434C33.277 44.728 34.692 45.5 36.23 45.5L46.115 45.5C48.365 45.5 50.283 43.818 50.577 41.587L52.43 27.5 5.571 27.5 7.424 41.587C7.718 43.818 9.636 45.5 11.886 45.5L21.771 45.5C23.31 45.5 24.725 44.728 25.557 43.434L26.478 42.001C27.031 41.139 27.975 40.624 29 40.624zM4.825 40.5L3.5 40.5C1.846 40.5.5 39.154.5 37.5L.5 28.5C.5 27.073 1.516 25.836 2.915 25.559 3.183 25.502 3.449 25.681 3.503 25.952 3.556 26.223 3.38 26.486 3.109 26.539 2.177 26.725 1.5 27.549 1.5 28.5L1.5 37.5C1.5 38.603 2.397 39.5 3.5 39.5L4.825 39.5C5.101 39.5 5.325 39.724 5.325 40 5.325 40.276 5.102 40.5 4.825 40.5zM54.5 40.5L53.175 40.5C52.899 40.5 52.675 40.276 52.675 40 52.675 39.724 52.899 39.5 53.175 39.5L54.5 39.5C55.603 39.5 56.5 38.603 56.5 37.5L56.5 28.5C56.5 27.549 55.823 26.725 54.891 26.54 54.62 26.487 54.444 26.224 54.497 25.953 54.551 25.682 54.813 25.508 55.085 25.559 56.484 25.836 57.5 27.073 57.5 28.5L57.5 37.5C57.5 39.154 56.155 40.5 54.5 40.5z"/>
      <path fill="#263238" d="M46.115,43.5 L36.23,43.5 C35.376,43.5 34.589,43.071 34.127,42.352 L33.206,40.92 C32.282,39.482 30.709,38.623 29,38.623 C27.291,38.623 25.718,39.481 24.794,40.919 L23.873,42.352 C23.411,43.071 22.624,43.5 21.77,43.5 L11.885,43.5 C10.635,43.5 9.57,42.565 9.406,41.327 L7.924,30.066 C7.905,29.923 7.949,29.779 8.044,29.671 C8.139,29.563 8.276,29.501 8.42,29.501 L49.58,29.501 C49.724,29.501 49.861,29.563 49.956,29.671 C50.051,29.779 50.095,29.923 50.076,30.066 L48.595,41.327 C48.431,42.565 47.365,43.5 46.115,43.5 Z M29,37.623 C31.051,37.623 32.938,38.653 34.047,40.379 L34.968,41.811 C35.246,42.243 35.718,42.5 36.23,42.5 L46.115,42.5 C46.865,42.5 47.505,41.939 47.603,41.195 L49.01,30.5 L8.991,30.5 L10.398,41.196 C10.496,41.94 11.135,42.5 11.885,42.5 L21.77,42.5 C22.283,42.5 22.754,42.242 23.032,41.811 L23.953,40.378 C25.062,38.653 26.949,37.623 29,37.623 Z"/>
      <path fill="#263238" d="M45.239,40.5 C45.218,40.5 45.196,40.499 45.173,40.496 C44.9,40.46 44.707,40.209 44.743,39.935 L45.664,32.935 C45.7,32.662 45.941,32.47 46.225,32.505 C46.498,32.541 46.691,32.792 46.655,33.066 L45.734,40.066 C45.701,40.317 45.486,40.5 45.239,40.5 Z"/>
      <g transform="translate(23 9)">
        <path fill="#FFD740" d="M6.891,1.738 L7.618,3.158 C7.766,3.448 8.047,3.647 8.369,3.693 L9.933,3.912 C10.765,4.028 11.091,5.056 10.479,5.631 L9.395,6.649 C9.149,6.88 9.036,7.22 9.095,7.553 L9.357,9.027 C9.502,9.839 8.656,10.467 7.92,10.094 L6.451,9.35 C6.167,9.206 5.831,9.206 5.547,9.35 L4.078,10.094 C3.342,10.467 2.497,9.839 2.641,9.027 L2.903,7.553 C2.962,7.22 2.849,6.88 2.603,6.649 L1.519,5.631 C0.907,5.056 1.233,4.028 2.065,3.912 L3.629,3.693 C3.952,3.648 4.232,3.448 4.38,3.158 L5.107,1.738 C5.482,1.013 6.519,1.013 6.891,1.738 Z"/>
        <path fill="#263238" d="M3.626,10.704 C3.311,10.704 2.999,10.604 2.733,10.407 C2.273,10.065 2.05,9.503 2.15,8.94 L2.412,7.467 C2.442,7.3 2.386,7.131 2.262,7.014 L1.179,5.996 C0.754,5.597 0.6,5.004 0.777,4.449 C0.953,3.894 1.421,3.499 1.998,3.418 L3.562,3.199 C3.723,3.176 3.864,3.076 3.937,2.931 L4.664,1.511 C4.922,1.008 5.434,0.695 5.999,0.695 C6.564,0.695 7.076,1.007 7.334,1.511 C7.334,1.511 7.334,1.511 7.334,1.511 L8.061,2.931 C8.135,3.076 8.275,3.176 8.437,3.199 L10,3.418 C10.577,3.499 11.045,3.894 11.222,4.449 C11.399,5.004 11.244,5.597 10.82,5.996 L9.736,7.014 C9.612,7.13 9.556,7.3 9.586,7.467 L9.848,8.94 C9.949,9.503 9.725,10.065 9.265,10.407 C8.806,10.749 8.203,10.8 7.693,10.54 L6.225,9.796 C6.083,9.725 5.914,9.725 5.773,9.796 L4.305,10.54 C4.09,10.65 3.858,10.704 3.626,10.704 Z M6,1.694 C5.809,1.694 5.642,1.796 5.555,1.966 L4.828,3.386 C4.606,3.82 4.184,4.119 3.701,4.188 L2.137,4.407 C1.942,4.434 1.79,4.563 1.73,4.751 C1.67,4.939 1.72,5.132 1.864,5.267 L2.948,6.285 C3.319,6.633 3.487,7.14 3.398,7.641 L3.136,9.114 C3.102,9.305 3.175,9.488 3.33,9.603 C3.485,9.718 3.682,9.735 3.854,9.648 L5.322,8.904 C5.747,8.688 6.254,8.688 6.678,8.904 L8.146,9.648 C8.319,9.736 8.515,9.718 8.67,9.603 C8.826,9.488 8.898,9.305 8.864,9.114 L8.602,7.641 C8.513,7.14 8.681,6.633 9.051,6.285 L10.135,5.267 C10.279,5.132 10.329,4.939 10.269,4.751 C10.209,4.563 10.057,4.435 9.862,4.407 L8.3,4.188 C7.816,4.12 7.395,3.82 7.173,3.386 L6.446,1.966 C6.358,1.796 6.192,1.694 6,1.694 Z"/>
      </g>
    </g>
    <text fill="#263238" font-family="OperatorMono-Bold, Operator Mono" font-size="14" font-weight="bold">
      <tspan x="20" y="78">SOLDIER</tspan>
    </text>
  </g>
</svg>
